<svg class="icon"  viewBox="0 0 1024 1024" version="1.1" xmlns="http://www.w3.org/2000/svg" p-id="25825">
<path d="M810.666667 256h-128l-24.96-49.92A64 64 0 0 0 600.533333 170.666667h-177.066666a64 64 0 0 0-57.173334 35.413333L341.333333 256h-128a85.333333 85.333333 0 0 0-85.333333 85.333333v426.666667a85.333333 85.333333 0 0 0 85.333333 85.333333h597.333334a85.333333 85.333333 0 0 0 85.333333-85.333333V341.333333a85.333333 85.333333 0 0 0-85.333333-85.333333zM512 746.666667a192 192 0 1 1 192-192 192 192 0 0 1-192 192zM512 554.666667m-128 0a128 128 0 1 0 256 0 128 128 0 1 0-256 0Z" p-id="25826"></path></svg>