<svg t="1578207854070" viewBox="0 0 1024 1024" version="1.1" xmlns="http://www.w3.org/2000/svg" p-id="37204" width="81" height="81">
<path d="M760.55134815 339.25681303h198.84107852v25H760.55134815zM712.08383525 488.38762192H959.39242667v25H712.08383525zM760.55134815 637.51843082h198.84107852v25H760.55134815z" p-id="37205">
</path>
<path d="M562.95302637 621.36259318c-9.94205392-4.97102697-16.15583763-14.91308089-16.15583762-27.34064829v-12.42756741c0-8.69929718 3.72827022-17.39859437 11.18481066-23.61237807 54.68129659-42.25372918 89.47848533-114.33362015 89.47848534-196.35556504 0-129.24670103-88.23572859-233.63826725-197.59832178-233.63826726S252.26384118 233.62249008 252.26384118 362.86919111c0 80.77918815 34.79718875 151.61632237 86.99297185 193.87005156 7.45654045 4.97102697 11.18481067 13.67032415 11.18481067 23.61237808v16.15583762c0 11.18481067-6.2137837 22.36962133-16.15583762 27.3406483C216.2238957 682.25767348 64.60757333 766.76513185 64.60757333 831.38848237v63.38059378h770.50917926v-63.38059378c0-64.62335052-152.85907911-150.37356563-272.16372622-210.02588919z" p-id="37206"></path></svg>