<svg t="1578205615721" class="icon" viewBox="0 0 1024 1024" version="1.1" xmlns="http://www.w3.org/2000/svg" p-id="21269" width="81" height="81">
<path d="M512 57.6c61.36576 0 120.8704 12.0064 176.8576 35.68768 54.10304 22.88384 102.70336 55.6544 144.45184 97.40288 41.74848 41.74848 74.52032 90.3488 97.40416 144.45184C954.39232 391.13088 966.4 450.63424 966.4 512s-12.00768 120.8704-35.68768 176.8576c-22.88384 54.10304-55.6544 102.70336-97.40416 144.45184-41.7472 41.74848-90.3488 74.52032-144.45184 97.40416C632.8704 954.39232 573.36576 966.4 512 966.4s-120.86912-12.00768-176.8576-35.68768c-54.10304-22.88384-102.70336-55.6544-144.45184-97.40416-41.7472-41.7472-74.51904-90.3488-97.40288-144.45184C69.6064 632.8704 57.6 573.36576 57.6 512s12.0064-120.86912 35.68768-176.8576c22.88384-54.10304 55.6544-102.70336 97.40288-144.45184 41.74848-41.7472 90.3488-74.51904 144.45184-97.40288C391.13088 69.6064 450.63424 57.6 512 57.6z"  p-id="21270"></path>
<path d="M593.00352 580.20352l190.06976-326.47808-326.47808 190.06976-190.06976 326.47808 326.47808-190.06976zM492.8 512c0-17.67424 14.32704-32 32-32s32 14.32576 32 32-14.32704 32-32 32-32-14.32576-32-32z" p-id="21271"></path>
</svg>