<svg viewBox="0 0 1024 1024" version="1.1" xmlns="http://www.w3.org/2000/svg" p-id="14468"><path d="M512 0c282.752 0 512 229.222 512 512s-229.248 512-512 512S0 794.778 0 512 229.248 0 512 0z m0 957.389c245.965 0 445.389-199.424 445.389-445.389S757.965 66.611 512 66.611 66.611 266.035 66.611 512 266.035 957.389 512 957.389z m-229.965-356.71c19.456 99.583 111.36 173.055 234.496 171.775 120.141 0.359 210.432-70.45 233.011-171.801h-94.208l-373.299 0.025z m-43.264-66.56l555.495-0.026c16.128 0 29.26 12.39 29.26 27.648 0 4.224-1.075 8.166-2.841 11.725C809.216 723.02 687.335 839.552 516.3 838.989c-175.949 1.869-297.805-120.576-304.333-265.523a26.163 26.163 0 0 1-2.842-11.7c0-15.283 13.082-27.673 29.62-27.648zM332.8 281.6c20.122 0 40.09 8.269 54.298 22.502C401.33 318.31 409.6 338.304 409.6 358.4c0 20.122-8.269 40.09-22.502 54.298a77.722 77.722 0 0 1-54.272 22.502 77.696 77.696 0 0 1-54.324-22.502A77.696 77.696 0 0 1 256 358.426c0-20.122 8.269-40.116 22.502-54.324A77.773 77.773 0 0 1 332.8 281.6z m358.4 0c20.096 0 40.09 8.269 54.298 22.502C759.73 318.31 768 338.304 768 358.4c0 20.122-8.269 40.09-22.502 54.298a77.696 77.696 0 0 1-54.272 22.502 77.696 77.696 0 0 1-54.324-22.502 77.722 77.722 0 0 1-22.502-54.272c0-20.122 8.269-40.116 22.502-54.324A77.773 77.773 0 0 1 691.2 281.6z" p-id="14469"></path></svg>