<svg t="1578672818054" class="icon" viewBox="0 0 1024 1024" version="1.1" xmlns="http://www.w3.org/2000/svg" p-id="7385" id="mx_n_1578672818056" width="81" height="81">
<path d="M522.24 1021.952C245.76 1021.952 20.48 796.672 20.48 520.192S245.76 18.432 522.24 18.432 1024 243.712 1024 520.192 798.72 1021.952 522.24 1021.952z" fill="#FFC107" p-id="7386"></path>
<path d="M350.208 370.688m-79.872 0a79.872 79.872 0 1 0 159.744 0 79.872 79.872 0 1 0-159.744 0Z" fill="white" p-id="7387"></path>
<path d="M696.32 370.688m-79.872 0a79.872 79.872 0 1 0 159.744 0 79.872 79.872 0 1 0-159.744 0Z" fill="white" p-id="7388"></path>
<path d="M522.24 864.256c-178.176 0-323.584-139.264-323.584-311.296v-30.72h645.12V552.96c2.048 172.032-143.36 311.296-321.536 311.296z" fill="white" p-id="7389"></path></svg>