<svg t="1579437308778" class="icon" viewBox="0 0 1024 1024" version="1.1" xmlns="http://www.w3.org/2000/svg" p-id="11194" width="81" height="81">
<path d="M173.00654602 215.36914062h677.98690796A56.51435852 56.51435852 0 0 1 907.5078125 271.88349914v480.23300172A56.51435852 56.51435852 0 0 1 850.99345398 808.63085938H173.00654602A56.51435852 56.51435852 0 0 1 116.4921875 752.11650086V271.88349914A56.51435852 56.51435852 0 0 1 173.00654602 215.36914062z m11.618042 135.95581055l277.50434875 201.80168152a84.75608826 84.75608826 0 0 0 99.74212646 0L839.52990723 351.32495117a28.24172974 28.24172974 0 1 0-33.24737549-45.69969177l-277.658844 201.73988342a28.30352783 28.30352783 0 0 1-33.24737548 0L217.84106445 305.50166321A28.24172974 28.24172974 0 1 0 184.62458802 351.32495117z m0 0" p-id="11195">
</path></svg>