<svg class="icon" style="width: 1.05859375em;height: 1em;vertical-align: middle;fill: red;overflow: hidden;" viewBox="0 0 1084 1024" version="1.1" xmlns="http://www.w3.org/2000/svg" p-id="934">
<path d="M780.047059 0c-93.364706 0-180.705882 48.188235-237.929412 123.482353C484.894118 45.176471 397.552941 0 304.188235 0 135.529412 0 0 150.588235 0 334.305882c0 108.423529 48.188235 186.729412 87.341176 249.976471 114.447059 180.705882 403.576471 403.576471 415.62353 412.611765 12.047059 9.035294 24.094118 15.058824 39.152941 15.058823s27.105882-6.023529 39.152941-15.058823 301.176471-231.905882 415.62353-412.611765c39.152941-63.247059 87.341176-138.541176 87.341176-249.976471C1084.235294 150.588235 948.705882 0 780.047059 0z m159.623529 539.105882C831.247059 710.776471 542.117647 933.647059 542.117647 933.647059S252.988235 710.776471 144.564706 539.105882c-39.152941-63.247059-75.294118-123.482353-75.294118-204.8 0-144.564706 105.411765-259.011765 237.929412-259.011764 96.376471 0 180.705882 63.247059 216.847059 153.6 3.011765 9.035294 12.047059 15.058824 21.082353 15.058823 9.035294 0 18.070588-6.023529 21.082353-15.058823 36.141176-90.352941 120.470588-153.6 216.847059-153.6 129.505882 0 237.929412 117.458824 237.929411 259.011764-6.023529 81.317647-39.152941 141.552941-81.317647 204.8z" p-id="935">
</path>
</svg>