<svg t="1578713881536" class="icon" viewBox="0 0 1024 1024" version="1.1" xmlns="http://www.w3.org/2000/svg" p-id="16545" width="81" height="81"><path d="M305.2 896.1c-65.7-3.5-126-32.3-170-81.2-51.5-57.2-70.5-143.2-48.4-219.2 20.7-71.3 75.4-124.2 149.9-145.1 27.7-7.8 56.4 8.4 64.1 36.1 7.7 27.7-8.4 56.4-36.1 64.1-50.9 14.3-70.6 48.1-78.1 73.9-11.9 40.9-1.3 90.5 25.8 120.6 25.4 28.2 60.2 44.8 98.1 46.8s74.3-10.9 102.5-36.3c25.5-22.9 41.8-54.3 46-88.2 2.2-17.9-0.4-105.6-2.3-169.6-3.2-105.6-4.9-171.7-1.2-196.8 8.7-59.6 37-113.4 79.5-151.7 48.9-44 111.9-66.3 177.6-62.8 65.7 3.5 126 32.3 170 81.2 51.5 57.2 70.5 143.2 48.4 219.2-20.7 71.3-75.4 124.2-149.9 145.1-27.7 7.8-56.4-8.4-64.1-36.1-7.7-27.7 8.4-56.4 36.1-64.1 50.9-14.3 70.6-48.1 78.1-73.9 11.9-40.9 1.3-90.5-25.8-120.6-25.4-28.2-60.2-44.8-98.1-46.8-37.9-2-74.3 10.9-102.5 36.3-24.2 21.8-41 54.4-46.1 89.4-2.5 17.6 0.2 110.7 2.3 178.6 2.9 98.9 4.6 160.8 1.6 185.4-7.2 58.9-35.5 113.2-79.7 152.9-49 43.9-112.1 66.2-177.7 62.8z" fill="#7D8DDD" p-id="16546"></path></svg>