<svg t="1578661854508" class="icon" viewBox="0 0 1024 1024" version="1.1" xmlns="http://www.w3.org/2000/svg" p-id="1785" width="81" height="81">
<path d="M950.6 905.4L798.9 753.7c56.9-70.6 91-160.5 91-258.3C890 268 705.6 83.6 478.2 83.6S66.4 268 66.4 495.4s184.4 411.8 411.8 411.8c106.6 0 203.7-40.5 276.9-107l150.4 150.4c6.2 6.2 14.4 9.4 22.6 9.4s16.4-3.1 22.6-9.4c12.4-12.5 12.4-32.7-0.1-45.2z m-337.1-89.5c-42.8 18.1-88.4 27.3-135.4 27.3s-92.5-9.2-135.4-27.3c-41.4-17.5-78.6-42.6-110.6-74.6-32-32-57-69.2-74.6-110.6-18.1-42.8-27.3-88.4-27.3-135.4s9.2-92.5 27.3-135.4c17.5-41.4 42.6-78.6 74.6-110.6 32-32 69.2-57 110.6-74.6 42.8-18.1 88.4-27.3 135.4-27.3s92.5 9.2 135.4 27.3c41.4 17.5 78.6 42.6 110.6 74.6 32 32 57 69.2 74.6 110.6 18.1 42.8 27.3 88.4 27.3 135.4s-9.2 92.5-27.3 135.4c-17.5 41.4-42.6 78.6-74.6 110.6-32 32-69.2 57.1-110.6 74.6z" p-id="1786">
</path>
</svg>