<svg t="1578725424987" class="icon" viewBox="0 0 1038 1024" version="1.1" xmlns="http://www.w3.org/2000/svg" p-id="85870" width="81" height="81"
><path d="M-33.9222048-34.13333333H1058.34446187v1092.26666666H-33.9222048z" fill="#358ADB" p-id="85871"></path
><path d="M183.6693792 575.5539776L437.88529067 836.2330048c6.4631168 6.4631168 15.0806048 10.77186027 23.6980928 10.77186027 8.617488 0 17.23497707-4.30874453 23.69809386-10.77186027l323.1558176-314.53833067c6.4631168-6.4631168 8.617488-12.92623253 10.77186134-21.54372053l30.1612096-282.2227488c0-10.77186027-2.15437227-19.38934933-8.61748907-28.00683733-6.4631168-6.4631168-17.23497707-10.77186027-28.00683733-10.77186027l-284.37712 21.54372053c-8.617488 0-15.0806048 4.30874453-21.5437216 8.61748907l-323.15581867 314.5383296c-6.4631168 6.4631168-10.77186027 15.0806048-10.77186027 23.69809387 0 12.92623253 4.30874453 21.5437216 10.77186027 28.00683733z m501.96870507-303.76646933c36.6243264 0 64.63116373 28.00683733 64.63116373 64.63116373s-28.00683733 64.63116373-64.63116373 64.63116373-64.63116373-28.00683733-64.63116374-64.63116373 28.00683733-64.63116373 64.63116374-64.63116373zM452.96589547 504.45969707" fill="#FFFFFF" p-id="85872">
</path></svg>