<svg t="1578672315262" class="icon" viewBox="0 0 1331 1024" version="1.1" xmlns="http://www.w3.org/2000/svg" p-id="5069" width="81" height="81"><path d="M816.54101563 510.02246094c0-19.77539063 5.93261719-37.57324219 19.77539062-49.43847657 13.84277344-13.84277344 31.640625-21.75292969 49.43847656-19.77539062 19.77539063 0 37.57324219 7.91015625 49.43847657 19.77539062 13.84277344 13.84277344 19.77539063 29.66308594 19.77539062 49.43847657s-5.93261719 37.57324219-19.77539062 51.41601562c-13.84277344 13.84277344-31.640625 21.75292969-49.43847657 21.75292969-19.77539063 0-37.57324219-7.91015625-49.43847656-21.75292969-13.84277344-13.84277344-21.75292969-31.640625-19.77539063-51.41601562z" p-id="5070" fill="#1296db"></path><path d="M905.53027344 697.88867188c-100.85449219 0-183.91113281-83.05664063-183.91113281-185.88867188s83.05664063-185.88867188 183.91113281-185.88867188h237.3046875V223.27929687c0-29.66308594-9.88769531-53.39355469-29.66308594-75.14648437S1069.66601563 116.4921875 1040.00292969 116.4921875H219.32421875C191.63867187 116.4921875 167.90820312 128.35742187 148.1328125 148.1328125S116.4921875 193.61621094 116.4921875 223.27929687v577.44140625c0 13.84277344 1.97753906 27.68554688 7.91015625 41.52832032 5.93261719 11.86523438 13.84277344 23.73046875 23.73046875 33.61816406s21.75292969 17.79785156 33.61816406 21.75292969c13.84277344 5.93261719 25.70800781 7.91015625 41.52832032 7.91015625h820.67871093c13.84277344 0 27.68554688-1.97753906 39.55078125-7.91015625 23.73046875-9.88769531 43.50585938-31.640625 51.41601563-55.37109375 5.93261719-11.86523438 7.91015625-25.70800781 7.91015625-41.52832032v-102.83203125h-237.3046875z" p-id="5071" fill="#1296db"></path></svg>