<svg viewBox="0 0 1024 1024" version="1.1" xmlns="http://www.w3.org/2000/svg" p-id="1525">
<path d="M279.20384 280.20736a43.4176 43.4176 0 0 0-30.49472 12.5952c-7.92576 7.9872-12.5952 19.10784-12.5952 30.49472 0 11.264 4.608 22.48704 12.5952 30.49472 7.9872 7.86432 19.18976 12.51328 30.5152 12.51328 11.24352 0 22.48704-4.64896 30.4128-12.57472 7.9872-7.9872 12.5952-19.2512 12.5952-30.43328a43.4176 43.4176 0 0 0-12.5952-30.5152 43.39712 43.39712 0 0 0-30.43328-12.57472z m326.10304 232.05888c-8.8064 0-17.57184 3.64544-23.83872 9.8304-6.26688 6.22592-9.91232 14.97088-9.91232 23.8592 0 8.88832 3.64544 17.59232 9.8304 23.83872 6.22592 6.26688 15.11424 9.85088 23.92064 9.85088 8.82688 0 17.59232-3.64544 23.8592-9.8304a33.83296 33.83296 0 0 0 0-47.7184 34.05824 34.05824 0 0 0-23.8592-9.8304z m-106.37312-145.94048c11.264 0 22.50752-4.66944 30.5152-12.5952 7.90528-7.9872 12.51328-19.2512 12.51328-30.5152 0-11.3664-4.608-22.48704-12.53376-30.47424a44.09344 44.09344 0 0 0-30.49472-12.53376c-11.30496 0-22.50752 4.608-30.49472 12.5952a43.4176 43.4176 0 0 0-12.5952 30.49472c0 11.264 4.608 22.50752 12.5952 30.49472 7.9872 7.86432 19.18976 12.53376 30.5152 12.53376zM857.088 0H165.888C74.32192 0 0.16384 74.42432 0.16384 166.2976v690.36032c0 91.87328 74.1376 166.2976 165.6832 166.2976h691.28192c91.5456 0 165.70368-74.42432 165.70368-166.2976V166.27712C1022.7712 74.42432 948.6336 0 857.088 0zM383.93856 685.32224c-38.68672 0-69.87776-7.92576-108.62592-15.52384l-108.35968 54.33344 31.00672-93.26592c-77.6192-54.272-124.02688-124.14976-124.02688-209.24416 0-147.61984 139.63264-263.72096 310.0672-263.72096 152.4736 0 286.02368 92.7744 312.79104 217.74336-9.8304-1.14688-19.80416-1.8432-29.83936-1.8432-147.29216 0-263.5776 109.95712-263.5776 245.3504 0 22.6304 3.50208 44.2368 9.5232 65.024-9.60512 0.63488-19.2512 1.14688-28.95872 1.14688z m457.27744 108.62592l23.3472 77.4144-85.03296-46.61248c-31.00672 7.80288-62.21824 15.60576-93.0816 15.60576-147.49696 0-263.65952-100.82304-263.65952-225.03424 0-123.96544 116.16256-225.03424 263.65952-225.03424 139.3664 0 263.3728 101.00736 263.3728 225.03424 0 70.00064-46.34624 131.8912-108.60544 178.62656z m-66.99008-281.68192c-8.82688 0-17.59232 3.64544-23.8592 9.8304a33.83296 33.83296 0 0 0 0 47.7184c6.20544 6.2464 15.03232 9.8304 23.8592 9.8304 8.8064 0 17.57184-3.64544 23.83872-9.8304a33.83296 33.83296 0 0 0 0-47.7184 33.93536 33.93536 0 0 0-23.83872-9.8304z" fill="#5BC551" p-id="1526">
</path>
</svg>