<svg t="1578723919796" class="icon" viewBox="0 0 1024 1024" version="1.1" xmlns="http://www.w3.org/2000/svg" p-id="50309" width="81" height="81">
<path d="M658.200358 580.550382c57.80972-68.017082 118.797908-159.691353 118.797908-258.191863C776.998266 144.449639 658.658996 0 513.014765 0 367.583855 0 248.807278 144.460305 248.807278 322.358519c0 98.50051 37.320334 164.469721 111.737017 256.602629 122.882986 181.322001-278.777243 194.505177-339.541446 323.947754-17.97221 38.45093-21.161344 68.251734-20.937358 102.60692 0 4.31973-0.447972 9.098098 1.823886 12.735204 2.282524 3.637106 5.695644 5.684978 9.33275 5.684978H1012.983517c3.637106 0 7.060892-2.271858 9.108764-5.684978 2.271858-3.637106 1.81322-8.191488 1.81322-12.74587 0.682624-38.440264-4.31973-72.79545-14.55909-93.946128-63.953336-135.351541-527.967002-125.122846-351.146053-330.99798" fill="#DDDDDD" p-id="50310">
</path>
</svg>