<svg t="1579528078831" class="icon" viewBox="0 0 1024 1024" version="1.1" xmlns="http://www.w3.org/2000/svg" p-id="55901" width="81" height="81">
<path d="M817.583158 517.281684a48.505263 48.505263 0 0 1-30.019369-10.401684L531.994947 306.283789a32.875789 32.875789 0 0 0-40.690526 0L235.681684 506.88a48.720842 48.720842 0 1 1-60.146526-76.692211L431.157895 229.591579c47.427368-37.187368 113.664-37.187368 161.037473 0l255.568843 200.59621a48.720842 48.720842 0 0 1-30.073264 87.093895M511.622737 828.901053a298.037895 298.037895 0 0 1-285.642105-209.92 48.720842 48.720842 0 1 1 92.968421-29.103158 200.919579 200.919579 0 0 0 192.673684 141.527579 200.865684 200.865684 0 0 0 192.781474-141.797053 48.720842 48.720842 0 1 1 93.07621 28.941474 297.930105 297.930105 0 0 1-285.857684 210.351158" fill="#FFFFFF" p-id="68308" style="
    fill: cornflowerblue;
"></path>
</svg>