<svg t="1579533469804" class="icon" viewBox="0 0 1024 1024" version="1.1" xmlns="http://www.w3.org/2000/svg" p-id="135846" width="81" height="81"><path d="M580.00097656 471.39453125a9.25488281 9.25488281 0 0 1-9.09667968 9.51855469H515.95507813v62.04199218a9.20214844 9.20214844 0 0 1-9.12304688 9.36035157h-27.10546875a9.28125 9.28125 0 0 1-9.14941406-9.36035157v-62.04199218h-54.92285157a9.28125 9.28125 0 0 1-9.04394531-9.51855469v-24.83789063c0-5.24707031 4.06054688-9.51855469 9.04394531-9.51855468h54.92285157v-65.91796875c0-5.16796875 4.16601563-9.41308594 9.14941406-9.41308594h27.10546875c5.03613281 0 9.12304688 4.24511719 9.12304688 9.41308594v65.91796875h54.94921874c5.03613281 0 9.09667969 4.27148438 9.09667969 9.51855468v24.83789063z" fill="#ffb83d" p-id="135847"></path><path d="M674.6328125 139.72167969c-69.92578125-0.55371094-135.07910156 34.64648438-177.50390625 92.62792969-43.00488281-57.95507813-107.578125-93.18164063-178.08398438-93.18164063C192.93066406 139.14160156 90.125 251.4921875 90.125 389.52441406c0 79.49707031 34.91015625 136.42382813 63.75585937 182.30273438-10.28320313 25.07519531-5.37890625 55.37109375 15.13476563 75.85839843l36.46582031 36.46582032a69.609375 69.609375 0 0 0 98.00683594 0l24.52148437-24.52148438a69.609375 69.609375 0 0 0 0-98.00683593L291.54394531 525.18359375a69.58300781 69.58300781 0 0 0-97.98046875 0l-1.21289062 1.16015625-13.20996094 13.02539063c-26.12988281-42.24023438-50.17675781-93.15527344-49.64941406-148.89550782 1.08105469-115.46191406 90.17578125-213.65332031 188.84179687-213.65332031 72.29882813 0 135.81738281 51.15234375 163.31835938 119.31152344V295.52539062c1.74023438 7.171875 7.72558594 12.55078125 14.95019531 12.55078126 7.14550781 0 13.078125-5.35253906 14.92382812-12.55078125 27.44824219-68.1328125 91.09863281-117.59765625 163.95117188-117.59765626 98.03320313 0 190.97753906 101.43457031 189.92285156 217.95117188-0.58007813 62.12109375-24.73242188 111.77050781-55.23925781 159.54785156l0.2109375 0.15820313c-2.47851563 3.95507813-40.26269531 52.83984375-77.67773438 96.00292968-40.97460938 43.16308594-57.21679688 61.48828125-57.21679687 61.48828126s-18.45703125-62.93847656-68.31738281-88.77832032c-47.11816406-24.46875-112.98339844-19.11621094-154.80175782 22.70214844-51.38964844 50.8359375-51.99609375 134.41992188-1.18652343 185.86230469 51.38964844 51.96972656 135.65917969 52.57617188 187.04882812 0.60644531 17.296875-17.98242188 29.29394531-38.89160156 34.62011719-61.59375l1.23925781-1.13378906s96.16113281-90.78222656 165.08496094-189.15820313a35.59570313 35.59570313 0 0 0 2.87402344-3.71777343l0.13183593 0.10546875c29.29394531-46.6171875 61.3828125-105.96972656 61.3828125-188.41992188-0.02636719-138.05859375-102.80566406-249.82910156-228.91992187-249.82910156zM189.87207031 577.15332031l30.74414063-30.74414062c8.99121094-8.96484375 26.578125-12.57714844 35.56933593-3.61230469l50.22949219 50.51953125c8.99121094 8.96484375 5.6953125 26.84179688-3.29589844 35.83300781l-30.74414062 30.69140625c-9.01757813 9.01757813-26.02441406 13.7109375-35.015625 4.69335938l-50.25585938-50.51953125c-8.99121094-9.01757813-6.22265625-27.87011719 2.76855469-36.86132813z m421.03125 229.52636719a92.75976563 92.75976563 0 0 1-129.99023437 0 92.12695313 92.12695313 0 0 1 0-129.9375 92.28515625 92.28515625 0 0 1 129.99023437 0c35.33203125 35.4375 35.99121094 93.94628906 0 129.9375z" fill="#ffb83d" p-id="135848"></path></svg>