<svg t="1579528021634" class="icon" viewBox="0 0 1024 1024" version="1.1" xmlns="http://www.w3.org/2000/svg" p-id="55100" width="81" height="81">
<path d="M187.847 380.7c1.593 20.594 3.869 41.302 4.665 62.01 1.48 38.456-13.767 69.062-45.056 91.477-24.12 17.294-50.517 29.81-79.303 36.636-33.678 7.85-61.781-19.797-53.02-53.362 5.006-19.114 11.377-38.57 21.39-55.41 24.803-41.756 39.936-86.926 52.337-133.347 2.276-8.647 5.348-17.294 9.216-25.372 6.713-13.995 22.073-21.277 36.75-16.84 10.582 3.186 20.936 7.737 30.834 12.971 15.702 8.192 30.948 17.522 46.422 26.397 9.443-10.127 18.546-20.822 28.33-30.607 34.475-34.247 77.028-55.978 120.377-76.003 67.926-31.403 137.785-58.027 211.286-73.273 34.02-7.054 68.835-11.605 103.537-14.222 41.416-3.072 83.058-4.665 124.473-3.641 53.817 1.251 106.838 8.42 155.99 33.11 26.51 13.311 48.697 31.743 53.475 62.008 3.3 21.163 2.048 43.577-0.341 65.08-3.982 36.524-18.887 70.202-33.45 103.425-3.87 8.76-13.995 15.815-22.756 20.935-22.187 12.97-46.99 19.684-72.135 24.462-70.884 13.54-140.402 7.51-208.214-16.839-40.277-14.45-72.704-40.732-102.286-70.883-3.072-3.072-5.575-7.282-9.33-9.103-3.982-1.934-10.354-3.527-13.198-1.593-2.958 2.048-4.665 8.761-3.868 12.744 1.024 4.778 4.664 9.557 8.192 13.312 42.894 46.42 95.118 77.482 156.672 91.704 73.5 16.953 146.66 16.043 218.794-7.85a122.643 122.643 0 0 0 12.174-4.779c3.869-1.707 7.737-3.868 13.085-4.779-7.965 11.606-15.474 23.439-23.78 34.703-55.978 75.093-127.772 127.886-218.34 154.282-57.798 16.84-115.597 14.45-173.055 0.455-96.029-23.438-184.206-63.715-260.21-128.113-23.666-20.025-45.966-41.643-61.554-68.836-6.03-10.467-11.15-21.845-13.994-33.337-2.39-9.216-6.144-15.132-14.109-17.522z m699.05-229.376c-11.15 1.024-22.413 1.48-33.45 3.186-17.067 2.73-33.337 8.306-46.876 19.456-11.947 9.785-10.582 23.894 2.73 31.403 5.348 2.958 11.378 5.12 17.295 6.713 26.965 7.395 54.5 5.461 81.806 2.39 13.994-1.594 27.875-6.031 41.074-11.151 9.102-3.527 15.928-11.264 15.473-22.414-0.455-10.582-9.102-14.45-16.839-18.091-19.342-8.875-40.05-11.378-61.212-11.492zM566.387 275.911c16.156 0 28.786-11.378 28.786-25.714-0.114-14.222-13.312-26.055-28.9-25.941-16.27 0.114-28.444 11.264-28.558 25.941 0 14.336 12.515 25.6 28.672 25.714z m125.27 619.748c-7.51 0-14.678 0.455-21.732-0.228-1.935-0.227-4.552-3.527-5.12-5.916-5.234-20.48-9.672-41.302-15.36-61.668-2.162-7.964-6.258-15.701-10.923-22.642-7.054-10.581-18.887-11.946-26.852-2.048-7.737 9.558-14.563 20.367-19.342 31.744-6.94 16.612-11.947 34.02-16.839 51.428-2.048 7.168-4.551 10.923-12.516 9.671-4.437-0.683-9.216-0.114-14.79-0.114 1.137-29.81 2.161-58.71 3.299-90.226-7.054 3.528-12.402 5.234-16.498 8.42-9.443 7.623-18.773 15.474-27.307 24.12-15.473 15.816-30.492 32.2-45.51 48.584-9.444 10.24-12.744 11.264-29.014 7.51a27062.731 27062.731 0 0 1 58.027-98.077c-18.887-5.461-35.385-12.97-42.44-32.313-4.437-12.06-3.754-24.007 1.138-36.409 1.138 4.21 2.048 8.533 3.3 12.743 6.371 21.732 25.486 32.996 46.99 26.51 5.575-1.706 11.72-6.371 14.791-11.264 18.887-30.492 37.092-61.44 55.069-92.387 3.3-5.689 6.599-6.713 12.743-5.689 29.582 4.665 59.278 9.102 89.088 1.252 6.485-1.707 12.743-4.438 19.683-6.94 0.114 80.895 0.114 161.677 0.114 243.939z" p-id="55101"
 fill="#d81e06"></path></svg>