<svg t="1579528078831" class="icon" viewBox="0 0 1024 1024" version="1.1" xmlns="http://www.w3.org/2000/svg" p-id="55901" width="81" height="81">
<path d="M1005 329.2c-56.7-41.9-147.3-60.5-147.3-60.5-18.1-25.6-29.5-41.9-56.7-60.5-38.5-23.3-63.5-14-63.5 9.3-2.299 18.6 13.6 18.6 43.1 23.3 29.5 2.3 38.5 23.3 38.5 23.3-54.4-16.3-126.9-16.3-131.499 23.3-2.3 34.9 56.7 30.3 88.4 25.6 31.7-2.3 24.9 23.3 18.1 32.601-6.8 7-34 16.3-97.5 0-65.7-14-131.5-30.3-233.5-34.9-104.299-7-206.299 41.9-278.8 48.9s-154.1-25.6-154.1-25.6c-40.8-14-29.5 16.3-22.7 23.3 117.9 107 296.901 97.7 296.901 97.7-24.9 76.8 9.1 116.4 9.1 116.4 29.5-23.3 63.5-34.9 63.5-34.9-79.3 55.8-163.2 155.9-70.3 158.2 95.2 7.001 217.6 130.3 217.6 130.3s24.9 2.3 13.6-65.2c-9.1-67.5-104.3-74.5-104.3-74.5 18.1 0 88.4-16.3 136-30.3 47.6-16.3 97.5-55.8 104.3-60.5 6.8-7 13.6-16.3 0-30.3s-6.8-18.6 9.1-39.6c15.9-18.6 102-76.8 185.9-109.4 86.1-34.9 95.2-9.3 138.3-25.6 40.8-27.8-2.201-60.4-2.201-60.4z" fill="#FFAC29" p-id="55902"></path></svg>