<svg t="1579533740296" class="icon" viewBox="0 0 1027 1024" version="1.1" xmlns="http://www.w3.org/2000/svg" p-id="145743" data-spm-anchor-id="a313x.7781069.0.i99" width="81" height="81">
<path d="M390.095238 0l-292.571429 0c-53.638095 0-97.52381 43.885714-97.52381 97.52381l0 292.571429c0 53.638095 43.885714 97.52381 97.52381 97.52381l292.571429 0c53.638095 0 97.52381-43.885714 97.52381-97.52381l0-292.571429C487.619048 43.885714 443.733333 0 390.095238 0z" p-id="145744" data-spm-anchor-id="a313x.7781069.0.i100" class="selected"></path>
<path d="M926.47619 0l-292.571429 0c-53.638095 0-97.52381 43.885714-97.52381 97.52381l0 292.571429c0 53.638095 43.885714 97.52381 97.52381 97.52381l292.571429 0c53.638095 0 97.52381-43.885714 97.52381-97.52381l0-292.571429C1024 43.885714 980.114286 0 926.47619 0zM975.238095 390.095238c0 26.819048-21.942857 48.761905-48.761905 48.761905l-292.571429 0c-26.819048 0-48.761905-21.942857-48.761905-48.761905l0-292.571429c0-26.819048 21.942857-48.761905 48.761905-48.761905l292.571429 0c26.819048 0 48.761905 21.942857 48.761905 48.761905L975.238095 390.095238z" p-id="145745"></path>
<path d="M390.095238 536.380952l-292.571429 0c-53.638095 0-97.52381 43.885714-97.52381 97.52381l0 292.571429c0 53.638095 43.885714 97.52381 97.52381 97.52381l292.571429 0c53.638095 0 97.52381-43.885714 97.52381-97.52381l0-292.571429C487.619048 580.266667 443.733333 536.380952 390.095238 536.380952zM438.857143 926.47619c0 26.819048-21.942857 48.761905-48.761905 48.761905l-292.571429 0c-26.819048 0-48.761905-21.942857-48.761905-48.761905l0-292.571429c0-26.819048 21.942857-48.761905 48.761905-48.761905l292.571429 0c26.819048 0 48.761905 21.942857 48.761905 48.761905L438.857143 926.47619z" p-id="145746"></path>
<path d="M926.47619 536.380952l-292.571429 0c-53.638095 0-97.52381 43.885714-97.52381 97.52381l0 292.571429c0 53.638095 43.885714 97.52381 97.52381 97.52381l292.571429 0c53.638095 0 97.52381-43.885714 97.52381-97.52381l0-292.571429C1024 580.266667 980.114286 536.380952 926.47619 536.380952zM975.238095 926.47619c0 26.819048-21.942857 48.761905-48.761905 48.761905l-292.571429 0c-26.819048 0-48.761905-21.942857-48.761905-48.761905l0-292.571429c0-26.819048 21.942857-48.761905 48.761905-48.761905l292.571429 0c26.819048 0 48.761905 21.942857 48.761905 48.761905L975.238095 926.47619z" p-id="145747"></path></svg>