<svg t="1579529748309" class="icon" viewBox="0 0 1024 1024" version="1.1" xmlns="http://www.w3.org/2000/svg" p-id="115817" width="81" height="81"><path d="M870.08605 933.10892 153.956929 933.10892c-49.457412 0-89.539292-39.379892-89.539292-87.951121l0-410.56068c0-48.583508 40.08188-87.965447 89.539292-87.965447L213.61875 346.631672l253.447363-191.128015c-1.158383-4.546549-1.945305-9.235338-1.945305-14.151301 0-32.388664 26.707268-58.646702 59.685357-58.646702 32.93511 0 59.664891 26.258037 59.664891 58.646702 0 10.555403-3.061732 20.303418-8.021697 28.858258l233.95031 176.421059 59.685357 0c49.435922 0 89.496313 39.381939 89.496313 87.965447l0 410.56068C959.582363 893.728004 919.520949 933.10892 870.08605 933.10892zM543.99418 744.951563l120.266108 0 0-22.224164-94.871741 0L569.388547 555.942815l-25.394367 0L543.99418 744.951563zM371.845425 744.951563l21.068851-57.280588 80.818677 0 22.138206 57.280588 28.981055 0-78.393441-189.008748-27.558659 0-73.934896 189.008748L371.845425 744.951563zM193.992761 578.11479c-5.505387 8.305153-8.260128 17.244756-8.260128 26.804483 0 8.709359 2.25025 16.543791 6.752798 23.582091 4.481058 7.013741 11.299347 12.893658 20.478404 17.61417 7.058766 3.714602 19.384489 7.649214 36.978193 11.824303 17.591657 4.161786 28.956495 7.221472 34.113959 9.210779 7.999185 3.013637 13.791098 6.719028 17.353227 11.123338 3.539616 4.414543 5.310959 9.573029 5.310959 15.504112 0 5.823636-1.793856 11.222599-5.420453 16.175401-3.606131 4.960988-9.113565 8.860808-16.522302 11.724019-7.40976 2.819209-15.954367 4.272303-25.634844 4.272303-10.906397 0-20.697391-1.892093-29.416983-5.638417-8.719592-3.748371-15.144932-8.685823-19.297508-14.772448-4.130064-6.067182-6.774287-13.870916-7.91118-23.354917l-23.99653 2.055822c0.349971 12.631692 3.846608 23.941272 10.533914 33.962509 6.665817 10.007935 15.866363 17.493419 27.602661 22.488177 11.736299 4.982478 26.290783 7.450692 43.642986 7.450692 13.681604 0 26.007327-2.446725 36.95568-7.374968 10.949376-4.928243 19.34151-11.843746 25.198915-20.729114 5.836939-8.873088 8.742105-18.3356 8.742105-28.369118 0-10.115382-2.665713-19.054985-7.998161-26.823925-5.354961-7.769964-13.637602-14.173814-24.827455-19.244296-7.715729-3.431146-21.87624-7.440459-42.485627-12.042267-20.586874-4.587482-33.329083-9.080819-38.222533-13.472849-4.963035-4.38282-7.453762-9.967002-7.453762-16.752546 0-7.823176 3.51915-14.498202 10.533914-20.051685 7.015787-5.539156 18.183128-8.314363 33.503045-8.314363 14.731516 0 25.854854 3.02694 33.394574 9.080819s11.954263 15.025205 13.265118 26.881231l24.477484-1.835811c-0.437975-11.057847-3.584642-20.970614-9.420557-29.723975-5.857405-8.751315-14.20656-15.372106-25.067932-19.874653-10.861372-4.51278-23.406083-6.764054-37.634132-6.764054-12.893658 0-24.628934 2.163269-35.186384 6.467295C207.500403 563.493791 199.478705 569.821917 193.992761 578.11479zM562.068837 186.80864c-10.228969 8.130168-23.078625 13.20065-37.261649 13.20065-19.756973 0-37.130665-9.550517-47.993061-24.062022L243.449149 346.630648l537.099654 0L562.068837 186.80864zM838.330812 722.727399 720.384539 722.727399l0-64.383356 106.299001 0 0-22.217001L720.384539 636.127042l0-57.958016 113.51331 0 0-22.227234L694.966637 555.941791l0 189.008748 143.365198 0L838.331835 722.727399zM431.880753 575.655785c3.080152 10.316973 7.627724 23.450085 13.659091 39.372729l20.236903 52.264341-65.629743 0 21.329794-55.337329C425.870876 600.013543 429.346023 587.895551 431.880753 575.655785z" p-id="115818"></path></svg>