<svg t="1579527776110" class="icon" viewBox="0 0 1024 1024" version="1.1" xmlns="http://www.w3.org/2000/svg" p-id="48846" width="81" height="81">
<path d="M785.0496 781.9776c0 12.544-17.2544 22.5792-34.0992 22.5792H153.6v-49.5104h597.3504c16.896 0 34.0992 12.288 34.0992 24.7808v2.1504z m-484.7616-225.28l64.9216 0.3584a10.24 10.24 0 0 0 10.24-10.24V485.12a10.24 10.24 0 0 0-10.1376-10.1888l-64.9216-0.3072a10.24 10.24 0 0 0-10.24 10.1888v61.7984a10.24 10.24 0 0 0 10.1376 10.1888z m119.5008 0.1536l64.9216 0.2048a10.24 10.24 0 0 0 10.24-10.24V485.0176a10.24 10.24 0 0 0-10.1888-10.24L419.84 474.624a10.24 10.24 0 0 0-10.24 10.1888v61.9008a10.24 10.24 0 0 0 10.1888 10.1888z m161.0752-82.2784h-41.6256a10.24 10.24 0 0 0-10.1888 10.1888v61.952c0 5.632 4.608 10.24 10.24 10.24l164.096 0.1024c-0.256-9.0112-0.512-9.1136-0.768-9.3184a583.9872 583.9872 0 0 0-58.2144-46.1824c-25.7536-18.0224-46.9504-26.9824-63.5392-26.9824z m139.9296-0.4096c148.992 113.152 136.2944 150.6816 136.5504 171.2128 0.1024 27.9552-32.9216 60.2112-89.344 60.2112H153.6V416.256c0-22.528 18.2784-40.7552 40.8064-40.7552h245.8624c27.2896 0.3584 160 7.0656 280.576 98.6112z m109.6704-217.5488c7.2704-2.2016 14.0288 1.9456 18.688 4.5056 5.3248 2.6112 10.496 5.632 15.6672 8.448 8.1408 3.9424 4.7616 10.9568 0.6656 13.312l-71.3728 48.7424c-4.7616 3.7888-0.9216 7.68 1.3312 8.8064l44.032 12.8c1.28 0.3072 2.56 0.1024 3.6864-0.512 15.6672-10.0864 32.6656-18.5856 47.2064-23.9616 0 0 26.624-8.8576 30.9248 9.1136a12.4416 12.4416 0 0 1-2.0992 10.1888l-34.56 41.6256a38.0416 38.0416 0 0 1-15.104 10.9568c-7.3728 2.9696-17.7664 6.4-26.4704 6.3488-15.3088-0.0512-30.8736-4.096-30.8736-4.096-92.6208-31.1296-266.4448-93.696-266.4448-93.696-13.568-5.632-17.2544-15.36-12.7488-22.3744 5.12-8.192 19.6096-17.664 37.12-20.1216 11.4688-1.3824 23.1424 0.6656 35.7376 4.352 43.008 14.5408 77.056 23.4496 79.4112 24.064a4.608 4.608 0 0 0 2.3552 0.1024c47.616-12.8 95.232-25.9072 142.848-38.6048z" 
fill="#03A9F4" p-id="48847"></path></svg>