<svg t="1579526686141" class="icon" viewBox="0 0 1024 1024" version="1.1" xmlns="http://www.w3.org/2000/svg" p-id="15955" width="81" height="81"><path d="M556.8 460.8l-64 115.2h45.6v32.8h-55.2v28.8h55.2v32.8h-55.2v48h-52v-48h-57.6v-32.8h57.6v-28.8h-57.6V576h47.2l-61.6-115.2h55.2l45.6 103.2h0.8c1.6-4 4-9.6 6.4-16.8L504 460.8h52.8zM13.6 855.2h872.8V730.4h124V205.6H137.6v125.6H13.6v524zM886.4 672V331.2H208v-68.8h747.2V672h-68.8zM84 797.6V388h747.2v408.8c-0.8 0.8-747.2 0.8-747.2 0.8z" p-id="15956"></path></svg>